<svg width="613" height="613" viewBox="0 0 613 613" fill="none" xmlns="http://www.w3.org/2000/svg">
<path d="M327.177 119.81C327.177 125.294 324.998 130.553 321.121 134.431C317.243 138.309 311.984 140.487 306.5 140.487C303.785 140.487 301.096 139.952 298.587 138.913C296.079 137.874 293.799 136.351 291.879 134.431C289.959 132.511 288.436 130.232 287.397 127.723C286.358 125.214 285.823 122.526 285.823 119.81C285.823 114.327 288.002 109.067 291.879 105.19C295.757 101.312 301.016 99.1336 306.5 99.1336C311.984 99.1336 317.243 101.312 321.121 105.19C324.998 109.067 327.177 114.327 327.177 119.81ZM317.635 119.81C317.635 116.857 316.461 114.025 314.373 111.937C312.285 109.849 309.453 108.676 306.5 108.676C303.547 108.676 300.715 109.849 298.627 111.937C296.539 114.025 295.365 116.857 295.365 119.81C295.365 122.763 296.539 125.596 298.627 127.684C300.715 129.772 303.547 130.945 306.5 130.945C309.453 130.945 312.285 129.772 314.373 127.684C316.461 125.596 317.635 122.763 317.635 119.81Z" fill="#393939"/>
<path d="M161.703 132.885C161.703 138.368 159.524 143.628 155.647 147.505C151.769 151.383 146.51 153.561 141.026 153.561C138.311 153.561 135.622 153.026 133.113 151.987C130.605 150.948 128.325 149.425 126.405 147.505C124.485 145.585 122.962 143.306 121.923 140.797C120.884 138.289 120.349 135.6 120.349 132.885C120.349 130.169 120.884 127.481 121.923 124.972C122.962 122.463 124.485 120.184 126.405 118.264C128.325 116.344 130.605 114.821 133.113 113.782C135.622 112.743 138.311 112.208 141.026 112.208C146.51 112.208 151.769 114.386 155.647 118.264C159.524 122.141 161.703 127.401 161.703 132.885ZM152.172 132.885C152.172 129.928 150.998 127.093 148.908 125.003C146.817 122.912 143.982 121.738 141.026 121.738C138.07 121.738 135.234 122.912 133.144 125.003C131.054 127.093 129.879 129.928 129.879 132.885C129.879 135.841 131.054 138.676 133.144 140.766C135.234 142.857 138.07 144.031 141.026 144.031C143.982 144.031 146.817 142.857 148.908 140.766C150.998 138.676 152.172 135.841 152.172 132.885Z" fill="#393939"/>
<path d="M492.651 132.885C492.651 138.368 490.472 143.628 486.595 147.505C482.717 151.383 477.458 153.561 471.974 153.561C466.49 153.561 461.231 151.383 457.353 147.505C453.476 143.628 451.297 138.368 451.297 132.885C451.297 127.401 453.476 122.141 457.353 118.264C461.231 114.386 466.49 112.208 471.974 112.208C477.458 112.208 482.717 114.386 486.595 118.264C490.472 122.141 492.651 127.401 492.651 132.885ZM483.109 132.873C483.109 129.919 481.936 127.087 479.847 124.999C477.759 122.911 474.927 121.738 471.974 121.738C469.021 121.738 466.189 122.911 464.101 124.999C462.013 127.087 460.84 129.919 460.84 132.873C460.84 135.826 462.013 138.658 464.101 140.746C466.189 142.834 469.021 144.007 471.974 144.007C474.927 144.007 477.759 142.834 479.847 140.746C481.936 138.658 483.109 135.826 483.109 132.873Z" fill="#393939"/>
<path d="M244.434 145.947C244.434 148.662 243.899 151.351 242.86 153.859C241.821 156.368 240.298 158.647 238.378 160.567C236.458 162.487 234.178 164.01 231.67 165.05C229.161 166.089 226.472 166.623 223.757 166.623C218.273 166.623 213.014 164.445 209.136 160.567C205.259 156.69 203.08 151.431 203.08 145.947C203.08 140.463 205.259 135.204 209.136 131.326C213.014 127.448 218.273 125.27 223.757 125.27C226.472 125.27 229.161 125.805 231.67 126.844C234.178 127.883 236.458 129.406 238.378 131.326C240.298 133.246 241.821 135.525 242.86 138.034C243.899 140.543 244.434 143.231 244.434 145.947ZM234.903 145.947C234.903 144.483 234.615 143.033 234.055 141.681C233.495 140.329 232.674 139.1 231.639 138.065C230.604 137.03 229.375 136.209 228.022 135.649C226.67 135.088 225.221 134.8 223.757 134.8C222.293 134.8 220.844 135.088 219.491 135.649C218.139 136.209 216.91 137.03 215.875 138.065C214.84 139.1 214.019 140.329 213.459 141.681C212.899 143.033 212.61 144.483 212.61 145.947C212.61 148.903 213.785 151.738 215.875 153.828C217.965 155.919 220.801 157.093 223.757 157.093C226.713 157.093 229.548 155.919 231.639 153.828C233.729 151.738 234.903 148.903 234.903 145.947Z" fill="#393939"/>
<path d="M409.908 145.947C409.908 151.431 407.729 156.69 403.852 160.567C399.974 164.445 394.715 166.623 389.231 166.623C386.516 166.623 383.827 166.089 381.318 165.05C378.81 164.01 376.53 162.487 374.61 160.567C372.69 158.647 371.167 156.368 370.128 153.859C369.089 151.351 368.554 148.662 368.554 145.947C368.554 143.231 369.089 140.543 370.128 138.034C371.167 135.525 372.69 133.246 374.61 131.326C376.53 129.406 378.81 127.883 381.318 126.844C383.827 125.805 386.516 125.27 389.231 125.27C394.715 125.27 399.974 127.448 403.852 131.326C407.729 135.204 409.908 140.463 409.908 145.947ZM400.366 145.947C400.366 144.484 400.078 143.037 399.518 141.686C398.958 140.335 398.138 139.107 397.104 138.073C396.07 137.039 394.843 136.219 393.492 135.66C392.141 135.1 390.693 134.812 389.231 134.812C387.769 134.812 386.321 135.1 384.97 135.66C383.619 136.219 382.392 137.039 381.358 138.073C380.324 139.107 379.504 140.335 378.944 141.686C378.384 143.037 378.096 144.484 378.096 145.947C378.096 148.9 379.27 151.732 381.358 153.82C383.446 155.908 386.278 157.081 389.231 157.081C392.184 157.081 395.016 155.908 397.104 153.82C399.192 151.732 400.366 148.9 400.366 145.947Z" fill="#393939"/>
<path d="M310.942 149.646H302.058C301.866 149.646 301.711 149.802 301.711 149.993V192.257C301.711 192.449 301.866 192.604 302.058 192.604H310.942C311.134 192.604 311.289 192.449 311.289 192.257V149.993C311.289 149.802 311.134 149.646 310.942 149.646Z" fill="#393939"/>
<path d="M146.21 214.706L169.748 238.244C170.06 238.563 170.06 238.878 169.748 239.19L163.882 245.032C163.57 245.344 163.259 245.344 162.948 245.032C154.583 236.668 146.102 228.183 137.506 219.579C136.129 218.202 136.213 216.214 136.225 214.251C136.241 197.074 136.237 179.993 136.213 163.008C136.213 162.768 136.337 162.649 136.584 162.649L145.36 162.672C145.647 162.672 145.791 162.816 145.791 163.104L145.779 213.676C145.779 214.075 145.923 214.418 146.21 214.706Z" fill="#393939"/>
<path d="M466.85 210.384C467.072 210.161 467.197 209.86 467.197 209.545V163.139C467.197 163.012 467.247 162.891 467.337 162.801C467.427 162.711 467.549 162.661 467.676 162.661L476.368 162.672C476.639 162.672 476.775 162.808 476.775 163.08V211.976C476.775 213.24 476.271 214.455 475.374 215.352L452.949 237.801C452.891 237.86 452.822 237.906 452.746 237.938C452.67 237.97 452.589 237.986 452.506 237.986C452.424 237.986 452.342 237.97 452.266 237.938C452.19 237.906 452.121 237.86 452.063 237.801L446.269 231.958C445.957 231.647 445.957 231.336 446.269 231.024L466.85 210.384Z" fill="#393939"/>
<path d="M228.738 191.06L257.891 220.165C257.945 220.219 257.987 220.282 258.016 220.352C258.045 220.422 258.06 220.497 258.06 220.572C258.06 220.648 258.045 220.723 258.016 220.793C257.987 220.862 257.945 220.926 257.891 220.979L251.893 226.93C251.839 226.983 251.776 227.026 251.706 227.055C251.636 227.084 251.561 227.099 251.486 227.099C251.41 227.099 251.335 227.084 251.265 227.055C251.196 227.026 251.132 226.983 251.079 226.93L219.195 195.047C219.142 194.993 219.1 194.93 219.071 194.86C219.042 194.79 219.028 194.715 219.028 194.639L218.98 176.309C218.98 176.157 219.041 176.011 219.148 175.903C219.256 175.795 219.402 175.735 219.555 175.735H228.007C228.16 175.735 228.306 175.795 228.414 175.903C228.522 176.011 228.582 176.157 228.582 176.309L228.57 190.653C228.57 190.728 228.585 190.803 228.613 190.873C228.642 190.943 228.684 191.006 228.738 191.06Z" fill="#393939"/>
<path d="M375.977 219.411C375.682 219.698 375.391 219.698 375.103 219.411L369.237 213.544C368.958 213.265 368.958 212.99 369.237 212.718L383.796 198.171C384.21 197.757 384.442 197.197 384.442 196.615L384.418 176.142C384.418 175.87 384.554 175.735 384.825 175.735H393.565C393.813 175.735 393.936 175.858 393.936 176.106C394.024 183.96 394.032 192.009 393.96 200.255C393.952 201.26 393.35 202.31 392.153 203.403C386.597 208.492 381.389 214.131 375.977 219.411Z" fill="#393939"/>
<path d="M371.931 238.783C408.95 214.634 454.614 239.896 456.565 282.95C456.573 283.189 456.693 283.349 456.925 283.429C520.08 305.219 504.803 395.457 438.499 394.942C424.499 394.83 410.626 394.782 396.882 394.798C396.642 394.798 396.522 394.679 396.522 394.439V385.579C396.522 385.332 396.642 385.208 396.882 385.208C411.528 385.232 426.298 385.176 441.192 385.041C493.513 384.586 505.545 311.074 456.314 293.402C456.253 293.38 456.188 293.371 456.123 293.377C456.058 293.382 455.995 293.402 455.938 293.433C455.882 293.465 455.832 293.509 455.794 293.561C455.755 293.613 455.729 293.674 455.715 293.737C452.746 309.102 444.848 321.19 432.021 330.002C431.965 330.041 431.902 330.068 431.835 330.081C431.768 330.095 431.7 330.095 431.634 330.082C431.568 330.068 431.505 330.041 431.45 330.003C431.396 329.965 431.35 329.916 431.315 329.859L426.706 322.735C426.506 322.424 426.558 322.168 426.861 321.969C434.22 317.004 439.572 310.726 442.917 303.136C457.008 271.097 432.812 236.544 397.804 239.154C389.918 239.736 382.483 242.738 375.499 248.157C375.211 248.381 375.119 248.668 375.223 249.019C378.839 261.71 378.42 274.258 373.966 286.661C373.931 286.756 373.86 286.834 373.768 286.877C373.676 286.919 373.57 286.924 373.475 286.889L365.441 283.824C365.299 283.769 365.183 283.662 365.118 283.526C365.054 283.39 365.045 283.234 365.094 283.093C380.551 238.076 332.6 198.95 291.486 221.374C277.582 228.957 268.95 240.914 265.59 257.245C265.326 258.498 265.502 259.878 266.116 261.387C268.575 267.501 269.983 273.723 270.343 280.052C270.351 280.228 270.267 280.32 270.091 280.328L261.219 280.891C260.964 280.906 260.828 280.791 260.812 280.543C258.969 256.945 240.148 236.747 215.364 238.855C193.646 240.698 178.081 258.825 176.285 280.196C176.269 280.375 176.324 280.554 176.438 280.693C176.552 280.832 176.717 280.92 176.896 280.938C190.752 282.295 202.506 287.914 212.156 297.796C212.219 297.863 212.253 297.952 212.251 298.044C212.249 298.136 212.21 298.223 212.144 298.287L205.69 304.381C205.539 304.525 205.391 304.521 205.247 304.369C169.665 268.654 111.178 305.925 127.473 353.181C134.082 372.35 152.711 384.921 173.304 384.634C177.926 384.57 189.172 384.59 207.043 384.693C207.259 384.693 207.362 384.801 207.355 385.017L207.331 393.9C207.323 394.124 207.207 394.236 206.983 394.236C198.403 394.236 189.791 394.22 181.146 394.188C170.028 394.148 162.102 393.509 157.369 392.272C117.536 381.88 102.067 333.043 128.072 301.4C137.658 289.738 150.309 282.95 166.025 281.034C166.432 280.978 166.651 280.747 166.683 280.34C167.737 267.002 172.422 255.7 180.739 246.433C201.823 222.907 237.178 223.314 257.448 247.702C257.767 248.093 258.015 248.05 258.19 247.571C266.356 225.094 281.852 211.413 304.68 206.528C331.427 200.805 358.318 214.825 371.033 238.555C371.248 238.954 371.548 239.03 371.931 238.783Z" fill="#393939"/>
<path d="M340.562 441.109C312.379 457.008 276.066 453.057 251.234 432.704C216.945 404.604 211.772 354.283 239.609 319.838C278.676 271.504 356.426 284.255 377.654 342.885C385.508 364.579 383.796 387.914 373.032 408.435C372.954 408.585 372.93 408.757 372.962 408.925C372.995 409.092 373.083 409.244 373.212 409.357C394.06 427.579 414.94 445.814 435.853 464.06C442.246 469.639 445.479 473.746 445.479 481.923C445.503 500.421 432.871 512.777 414.829 513.783C406.196 514.273 401.659 511.041 395.864 504.3C377.801 483.3 359.743 462.3 341.688 441.3C341.368 440.925 340.993 440.861 340.562 441.109ZM372.96 370.446C372.96 351.654 365.495 333.632 352.208 320.344C338.92 307.057 320.898 299.592 302.106 299.592C283.314 299.592 265.292 307.057 252.005 320.344C238.717 333.632 231.252 351.654 231.252 370.446C231.252 389.238 238.717 407.26 252.005 420.547C265.292 433.835 283.314 441.3 302.106 441.3C320.898 441.3 338.92 433.835 352.208 420.547C365.495 407.26 372.96 389.238 372.96 370.446ZM361.634 448.915C370.853 445.371 377.151 438.822 380.91 429.567C381.062 429.2 380.986 428.884 380.683 428.621L368.111 417.594C368.036 417.531 367.949 417.483 367.855 417.455C367.761 417.426 367.662 417.417 367.565 417.428C367.467 417.44 367.373 417.471 367.288 417.52C367.202 417.569 367.128 417.635 367.07 417.714C362.217 424.403 356.462 430.193 349.805 435.086C349.736 435.137 349.679 435.202 349.635 435.276C349.592 435.35 349.565 435.431 349.555 435.516C349.545 435.6 349.552 435.685 349.577 435.766C349.601 435.846 349.642 435.921 349.697 435.984L360.628 448.651C360.908 448.971 361.243 449.058 361.634 448.915ZM388.537 435.888C383.963 445.263 377.749 451.884 368.231 456.469C367.832 456.661 367.776 456.928 368.064 457.272C380.635 471.99 393.278 486.649 405.993 501.247C410.219 506.096 419.39 504.444 424.574 501.81C432.165 497.979 435.972 490.184 435.913 481.863C435.897 478.711 434.819 476.184 432.68 474.285C418.185 461.426 403.614 448.599 388.968 435.805C388.936 435.776 388.898 435.756 388.857 435.744C388.816 435.733 388.773 435.731 388.731 435.739C388.69 435.748 388.65 435.765 388.617 435.791C388.583 435.817 388.555 435.85 388.537 435.888Z" fill="#393939"/>
<path d="M261.902 358.713C261.83 358.928 261.682 359.008 261.459 358.952L252.958 356.63C252.908 356.615 252.861 356.592 252.821 356.56C252.78 356.528 252.747 356.488 252.722 356.443C252.697 356.398 252.682 356.349 252.678 356.299C252.673 356.249 252.679 356.198 252.695 356.151C258.266 338.295 270.007 326.59 287.918 321.035C288.094 320.979 288.21 321.043 288.266 321.226L290.636 329.823C290.658 329.907 290.647 329.996 290.605 330.074C290.563 330.151 290.493 330.211 290.409 330.242C275.954 334.751 266.451 344.242 261.902 358.713Z" fill="#393939"/>
</svg>
