<svg width="24" height="22" viewBox="0 0 24 22" fill="none" xmlns="http://www.w3.org/2000/svg">
<path d="M9.6059 2.20022C7.69517 2.20022 5.8627 2.89604 4.5116 4.13461C3.16051 5.37319 2.40148 7.05305 2.40148 8.80466C2.40148 10.5563 3.16051 12.2361 4.5116 13.4747C5.8627 14.7133 7.69517 15.4091 9.6059 15.4091C11.5166 15.4091 13.3491 14.7133 14.7002 13.4747C16.0513 12.2361 16.8103 10.5563 16.8103 8.80466C16.8103 7.05305 16.0513 5.37319 14.7002 4.13461C13.3491 2.89604 11.5166 2.20022 9.6059 2.20022ZM5.9336e-08 8.80466C0.000218926 7.40326 0.365286 6.02215 1.06486 4.77611C1.76444 3.53006 2.77832 2.45507 4.02224 1.64048C5.26616 0.825881 6.70419 0.295207 8.21683 0.092557C9.72947 -0.110093 11.273 0.0211351 12.7192 0.475334C14.1654 0.929533 15.4725 1.69358 16.5318 2.70399C17.5911 3.7144 18.372 4.94198 18.8097 6.28471C19.2474 7.62744 19.3291 9.04654 19.0482 10.4241C18.7673 11.8016 18.1318 13.0978 17.1946 14.2049L23.6629 20.1346C23.8817 20.3422 24.0027 20.6202 24 20.9088C23.9972 21.1974 23.8709 21.4735 23.6483 21.6776C23.4257 21.8817 23.1245 21.9974 22.8097 22C22.4949 22.0025 22.1916 21.8915 21.9651 21.691L15.4967 15.7613C14.0768 16.7719 12.376 17.397 10.5878 17.5654C8.79962 17.7339 6.99573 17.439 5.38128 16.7142C3.76684 15.9895 2.40663 14.864 1.45532 13.4657C0.504021 12.0675 -0.000199707 10.4526 5.9336e-08 8.80466Z" fill="#393939"/>
</svg>
