<svg width="319" height="96" viewBox="0 0 319 96" fill="none" xmlns="http://www.w3.org/2000/svg">
<path d="M60.1741 17.8068C60.435 19.3326 60.62 20.771 60.729 22.1218C60.8875 24.0143 60.5308 25.2082 58.4203 25.2528C54.4603 25.3354 51.1328 25.271 48.4377 25.0596" stroke="#303D7F" stroke-width="2"/>
<path d="M48.4379 25.0595C47.7839 23.7087 47.8434 22.5395 48.6162 21.552" stroke="#496B7B" stroke-width="2"/>
<path d="M48.6162 21.552L55.9731 21.329C56.0411 21.3266 56.1078 21.3104 56.1693 21.2813C56.2307 21.2522 56.2856 21.2109 56.3306 21.1599C56.3756 21.1089 56.4097 21.0493 56.4308 20.9847C56.452 20.9201 56.4598 20.8518 56.4537 20.7841C56.3513 19.6512 56.0689 18.459 55.6065 17.2072C55.121 15.8795 54.0971 14.4989 52.5349 13.0656" stroke="#303D7F" stroke-width="2"/>
<path d="M14.6011 80.0059C19.362 74.4424 23.1618 67.9128 25.4804 60.9622C27.2737 55.5919 28.7798 49.5479 28.3488 43.8754C28.1506 41.2695 27.1416 38.9939 25.3218 37.0486" stroke="#303D7F" stroke-width="2"/>
<path d="M25.322 37.0485C22.9077 34.2445 19.8212 32.7566 16.0627 32.5848C15.5078 32.5584 14.8308 32.129 14.0315 31.2968" stroke="#496B7B" stroke-width="2"/>
<path d="M14.1948 29.4984C15.1989 28.8379 16.0279 28.5406 16.6818 28.6067C20.7739 29.0096 24.1791 30.3951 26.8972 32.7632C29.1926 34.7614 30.7994 37.3078 31.7176 40.4025" stroke="#496B7B" stroke-width="2"/>
<path d="M31.7177 40.4025C32.7828 46.0849 32 51.7821 30.821 57.5339C30.3701 59.7385 29.4982 61.9282 28.7204 64.0882C25.629 72.7084 19.902 80.7886 13.5806 87.3578" stroke="#303D7F" stroke-width="2"/>
<path d="M45.0493 12.045L47.8484 12.7931C47.9277 12.8149 47.9981 12.861 48.0497 12.925C48.1013 12.9891 48.1314 13.0677 48.1357 13.1498L48.6163 21.552" stroke="#79A8F9" stroke-width="2"/>
<path d="M48.4377 25.0596L48.5566 29.0031" stroke="#79A8F9" stroke-width="2"/>
<path d="M46.3025 64.9899C43.9146 64.8248 41.5515 64.7604 39.2132 64.7967C36.2754 64.8413 35.7106 67.6354 38.1331 68.8839" stroke="#496B7B" stroke-width="2"/>
<path d="M32.0842 71.7076L35.0121 63.4144" stroke="#79A8F9" stroke-width="2"/>
<path d="M35.0122 63.4145C37.1656 62.4303 38.8946 60.8631 40.1992 58.713C40.5955 58.0591 41.4674 56.4011 42.815 53.7391C43.9396 51.5097 44.1625 47.5315 44.1774 44.4699C44.25 30.7073 44.2071 20.3862 44.0485 13.5065C44.0353 13.064 43.7893 12.7089 43.3104 12.4414" stroke="#496B7B" stroke-width="2"/>
<path d="M40.8432 12.5652C40.5657 13.1795 40.3131 13.8087 40.318 14.5122C40.3345 22.6931 40.3246 30.874 40.2883 39.0549C40.2487 47.1451 40.3775 51.3858 36.2705 57.1623" stroke="#496B7B" stroke-width="2"/>
<path d="M36.2706 57.1623C36.6835 53.5458 36.7231 50.7616 36.3895 48.8096C35.8611 45.6984 34.3038 42.896 31.7178 40.4025" stroke="#79A8F9" stroke-width="2"/>
<path d="M31.4304 12.907C30.2942 14.7236 30.2496 16.1949 31.2966 17.3212C34.1155 20.3581 38.8269 16.266 35.4977 12.7584" stroke="#496B7B" stroke-width="2"/>
<path d="M25.3219 37.0486C24.4533 36.8339 23.6061 36.6176 22.7804 36.3996C20.2984 35.7456 17.3804 35.9834 14.8241 36.0379C14.2494 36.0511 13.891 35.8431 13.749 35.4137" stroke="#79A8F9" stroke-width="2"/>
<path d="M35.0121 63.4145C32.8422 62.1264 33.075 60.9622 34.6058 59.2431C35.2631 58.5033 35.8179 57.8097 36.2704 57.1624" stroke="#303D7F" stroke-width="2"/>
<path d="M60.1744 17.8067C60.4353 19.3326 60.6202 20.7709 60.7292 22.1218C60.8877 24.0142 60.531 25.2082 58.4206 25.2528C54.4606 25.3354 51.1331 25.271 48.438 25.0596C47.7841 23.7087 47.8435 22.5396 48.6163 21.552L55.9732 21.3291C56.0412 21.3267 56.1079 21.3104 56.1694 21.2814C56.2309 21.2523 56.2858 21.211 56.3307 21.16C56.3757 21.109 56.4098 21.0494 56.431 20.9848C56.4521 20.9201 56.4599 20.8519 56.4538 20.7842C56.3514 19.6513 56.069 18.459 55.6066 17.2073C55.1211 15.8796 54.0973 14.499 52.5351 13.0656C51.1347 11.6884 49.9589 10.7636 49.0077 10.2913C46.3969 8.99331 43.7563 8.70597 40.5263 8.71093C33.8877 8.71093 26.4516 7.85386 20.1895 10.7074C17.6926 11.8419 13.7492 15.3792 12.575 17.8414C12.2514 18.5218 11.9227 19.1988 11.5891 19.8726C10.2218 22.6205 9.54309 25.5352 9.553 28.6166C9.61575 47.4027 9.65043 66.1624 9.65704 84.8956C9.65704 85.0707 9.73135 85.1103 9.87997 85.0145C10.9633 84.2978 11.8699 83.4028 12.5998 82.3294C12.9102 81.8736 13.2339 81.4822 13.5708 81.1552C14.0266 80.716 14.3701 80.3329 14.6013 80.0059C19.3622 74.4424 23.162 67.9128 25.4805 60.9622C27.2739 55.5919 28.78 49.5479 28.349 43.8754C28.1508 41.2695 27.1418 38.9939 25.322 37.0486C22.9077 34.2445 19.8213 32.7566 16.0627 32.5849C15.5079 32.5585 14.8308 32.1291 14.0315 31.2968C13.9721 30.6099 14.0266 30.0104 14.195 29.4985C15.1991 28.8379 16.0281 28.5407 16.682 28.6067C20.7741 29.0097 24.1793 30.3952 26.8974 32.7632C29.1928 34.7614 30.7996 37.3078 31.7178 40.4025C32.7829 46.0849 32.0002 51.7822 30.8211 57.5339C30.3703 59.7385 29.4983 61.9282 28.7205 64.0883C25.6292 72.7085 19.9022 80.7886 13.5807 87.3578C12.973 87.916 12.4 88.4857 11.8616 89.067C11.0095 89.9835 9.9741 90.6672 8.88914 91.5292C7.5218 92.6142 5.67886 91.3211 5.70363 89.8993C5.76969 86.0879 5.78125 79.6145 5.73831 70.4791C5.65574 52.5286 5.64253 38.4919 5.69868 28.3689C5.71189 25.7399 6.10492 23.0135 6.87777 20.1897C7.0429 19.5886 7.65226 18.3368 8.70584 16.4344C8.80492 16.2594 8.76034 16.1372 8.57208 16.0678C8.03703 15.8746 7.48216 15.8647 7.02638 15.5377C4.72766 13.9029 3.59317 12.2085 3.58326 9.54322C3.57831 7.79936 5.55501 6.73918 6.76382 7.87367C7.58125 8.63166 7.49703 10.103 8.08657 10.9353C8.97501 12.1937 10.1558 12.6296 11.6288 12.2432C11.7906 12.2003 11.9211 12.1111 12.0202 11.9757C12.8095 10.8693 13.8119 10.0089 15.0273 9.3946C15.242 9.2856 15.3989 9.13863 15.498 8.95368C15.5937 8.77863 15.5425 8.69771 15.3444 8.71093C11.4736 8.91239 8.87758 7.21973 7.55648 3.63294C7.07097 2.32504 7.09079 0.754585 8.56712 0.189814C9.43244 -0.140462 10.1838 -0.0397278 10.8213 0.492016C12.2332 1.66615 11.1284 4.56927 14.2049 4.57422C23.806 4.58413 33.4088 4.58743 43.0132 4.58413C47.5066 4.57917 53.7786 7.53184 56.429 11.2623C57.2316 12.3918 58.1283 13.2786 58.6832 14.5667C59.1918 15.7425 59.6889 16.8225 60.1744 17.8067Z" fill="#393939"/>
<path d="M45.0492 12.045L47.8483 12.7931C47.9276 12.8149 47.998 12.861 48.0496 12.925C48.1012 12.9891 48.1313 13.0677 48.1356 13.1498L48.6162 21.552C47.8433 22.5396 47.7839 23.7087 48.4378 25.0596L48.5567 29.003C48.4048 29.8948 48.3272 30.6742 48.3239 31.3414C48.3008 37.6001 48.3107 43.8621 48.3536 50.1275C48.3635 51.7524 48.2132 53.3774 47.9028 55.0023C47.2819 58.2192 46.6956 61.4411 46.1441 64.6679C46.1309 64.7471 46.1507 64.8181 46.2035 64.8809C46.2299 64.9139 46.263 64.9502 46.3026 64.9899C43.9147 64.8247 41.5516 64.7603 39.2132 64.7967C36.2754 64.8413 35.7107 67.6354 38.1332 68.8838C36.6701 70.5914 34.6538 71.5326 32.0842 71.7077L35.0121 63.4145C37.1655 62.4303 38.8945 60.8631 40.1991 58.713C40.5954 58.059 41.4674 56.4011 42.8149 53.739C43.9395 51.5097 44.1624 47.5315 44.1773 44.4699C44.2499 30.7073 44.207 20.3862 44.0485 13.5065C44.0353 13.0639 43.7892 12.7089 43.3103 12.4414L45.0492 12.045Z" fill="#92D6F5"/>
<path d="M45.0493 12.045C47.4537 12.0814 49.9489 12.4216 52.535 13.0656C54.0972 14.499 55.1211 15.8795 55.6066 17.2073C56.069 18.459 56.3513 19.6513 56.4537 20.7841C56.4598 20.8519 56.4521 20.9201 56.4309 20.9847C56.4098 21.0494 56.3756 21.109 56.3307 21.16C56.2857 21.211 56.2308 21.2523 56.1693 21.2814C56.1079 21.3104 56.0411 21.3267 55.9732 21.3291L48.6163 21.552L48.1357 13.1498C48.1314 13.0677 48.1013 12.9891 48.0497 12.925C47.9981 12.861 47.9277 12.8149 47.8484 12.7931L45.0493 12.045Z" fill="#5F7AFD"/>
<path d="M40.8431 12.5653C40.5657 13.1796 40.313 13.8088 40.318 14.5123C40.3345 22.6932 40.3246 30.8741 40.2883 39.055C40.2486 47.1451 40.3774 51.3859 36.2705 57.1624C36.6833 53.5459 36.7229 50.7617 36.3894 48.8097C35.8609 45.6985 34.3037 42.8961 31.7176 40.4026C30.7994 37.3079 29.1926 34.7615 26.8972 32.7633C24.1791 30.3952 20.7739 29.0097 16.6818 28.6068C16.0279 28.5407 15.1989 28.838 14.1948 29.4985C14.6704 27.6787 15.2666 25.9282 15.9833 24.2471C16.7016 22.5578 18.386 20.0014 19.798 18.7233C20.3132 18.2576 20.8284 17.7919 21.3436 17.3262C22.711 16.0827 24.2616 15.399 25.8519 14.4924C27.5892 13.5049 29.4486 12.9765 31.4303 12.9071C30.2941 14.7236 30.2495 16.195 31.2965 17.3212C34.1154 20.3581 38.8268 16.266 35.4976 12.7585C37.215 12.2367 38.9969 12.1723 40.8431 12.5653Z" fill="#92D6F5"/>
<path d="M35.4977 12.7584C38.8269 16.266 34.1155 20.3581 31.2966 17.3212C30.2496 16.1949 30.2942 14.7236 31.4304 12.907C32.7713 12.2894 34.1271 12.2399 35.4977 12.7584Z" fill="#393939"/>
<path d="M43.3102 12.4414C43.7891 12.7089 44.0352 13.0639 44.0484 13.5065C44.2069 20.3861 44.2499 30.7073 44.1772 44.4698C44.1624 47.5315 43.9394 51.5097 42.8148 53.739C41.4673 56.4011 40.5954 58.059 40.1991 58.713C38.8945 60.8631 37.1655 62.4302 35.0121 63.4145C32.8422 62.1264 33.075 60.9622 34.6058 59.2431C35.2631 58.5033 35.8179 57.8097 36.2704 57.1623C40.3774 51.3858 40.2486 47.1451 40.2882 39.055C40.3246 30.874 40.3345 22.6931 40.3179 14.5122C40.313 13.8087 40.5657 13.1795 40.8431 12.5652C41.6159 12.3472 42.4383 12.3059 43.3102 12.4414Z" fill="#393939"/>
<path d="M60.1743 17.8068C61.7861 19.1114 62.9965 20.8536 63.8057 23.0334C64.4729 24.8367 64.8709 26.6961 64.9997 28.6117C65.0017 28.647 64.9965 28.6824 64.9845 28.7156C64.9726 28.7489 64.954 28.7794 64.9299 28.8053C64.9059 28.8312 64.8768 28.852 64.8445 28.8664C64.8123 28.8808 64.7774 28.8886 64.742 28.8892L48.5569 29.0031L48.438 25.0596C51.133 25.271 54.4606 25.3354 58.4206 25.2528C60.531 25.2082 60.8877 24.0143 60.7292 22.1218C60.6202 20.771 60.4353 19.3326 60.1743 17.8068Z" fill="#5F7AFD"/>
<path d="M14.0314 31.2969C14.8307 32.1292 15.5077 32.5585 16.0626 32.5849C19.8211 32.7567 22.9076 34.2446 25.3219 37.0486C24.4533 36.8339 23.6061 36.6176 22.7804 36.3996C20.2984 35.7457 17.3804 35.9835 14.8241 36.038C14.2494 36.0512 13.891 35.8431 13.749 35.4138L14.0314 31.2969Z" fill="#92D6F5"/>
<path d="M13.7491 35.4137C13.8911 35.8431 14.2495 36.0511 14.8242 36.0379C17.3805 35.9834 20.2985 35.7456 22.7805 36.3996C23.6062 36.6176 24.4533 36.8339 25.322 37.0486C27.1418 38.9939 28.1508 41.2695 28.3489 43.8754C28.78 49.5478 27.2739 55.5919 25.4805 60.9622C23.162 67.9128 19.3621 74.4424 14.6012 80.0059C13.9341 78.4437 13.6319 76.8237 13.6946 75.1459C13.7309 74.0857 13.7491 73.5308 13.7491 73.4813C13.726 60.7888 13.726 48.0996 13.7491 35.4137Z" fill="#5F7AFD"/>
<path d="M31.7177 40.4025C34.3037 42.896 35.861 45.6984 36.3894 48.8096C36.723 50.7616 36.6834 53.5458 36.2705 57.1623C35.818 57.8096 35.2632 58.5032 34.6059 59.243C33.0751 60.9621 32.8422 62.1264 35.0122 63.4144L32.0843 71.7076C31.7011 72.0842 31.4006 72.5631 31.1826 73.1444C30.9019 73.9007 30.6822 74.4143 30.5237 74.6851C29.1811 77.0086 28.0615 79.3469 26.4365 81.5515C25.5101 82.8099 24.6184 84.2168 23.7217 85.3513C20.7888 89.0801 17.5191 92.4803 13.9125 95.5519C13.8962 95.5656 13.8764 95.5743 13.8554 95.5769C13.8343 95.5795 13.8128 95.576 13.7933 95.5667C13.7737 95.5575 13.7569 95.5428 13.7447 95.5245C13.7325 95.5061 13.7254 95.4847 13.7242 95.4627L13.5806 87.3578C19.902 80.7886 25.629 72.7084 28.7204 64.0882C29.4982 61.9282 30.3701 59.7385 30.821 57.5339C32 51.7821 32.7828 46.0849 31.7177 40.4025Z" fill="#5F7AFD"/>
<path d="M46.3028 64.9899L48.5866 65.5646C49.2406 65.7297 49.5708 66.1492 49.5774 66.8229L49.5874 68.4578C49.594 69.1811 49.2422 69.4734 48.5321 69.3347C47.4373 69.1167 46.382 68.7996 45.2674 68.755C42.7308 68.6527 40.3528 68.6956 38.1334 68.8839C35.7108 67.6354 36.2756 64.8413 39.2134 64.7967C41.5518 64.7604 43.9149 64.8248 46.3028 64.9899Z" fill="#393939"/>
<path d="M0.288661 68.2249C0.546276 67.7146 0.58591 67.0904 0.0954502 66.6049C-0.0168435 66.4959 -0.0300554 66.3754 0.0558162 66.2432C0.937652 64.8809 3.54848 64.6133 3.40481 66.6495C3.29912 68.1159 2.35619 68.8062 0.576002 68.7203C0.222607 68.7038 0.126826 68.5387 0.288661 68.2249Z" fill="#393939"/>
<path d="M192.702 31.7374C195.357 31.742 197.514 29.7917 197.518 27.3813C197.522 24.9708 195.373 23.013 192.717 23.0084C190.061 23.0038 187.905 24.9541 187.901 27.3645C187.896 29.7749 190.046 31.7328 192.702 31.7374Z" fill="#393939"/>
<path d="M270.575 30.4822C270.298 30.7911 270.102 31.1452 269.986 31.5443C269.87 31.9692 269.59 32.1784 269.146 32.1719L266.269 32.1237C265.85 32.1172 265.667 31.9048 265.718 31.4864C266.265 27.2892 268.46 25.2389 272.304 25.3355C274.186 25.3838 278.619 28.8889 280.115 25.77C280.176 25.6429 280.27 25.5354 280.388 25.4602C280.506 25.385 280.642 25.3451 280.782 25.3452L283.427 25.3162C283.852 25.3098 284.026 25.5125 283.949 25.9245C282.607 33.1955 278.039 33.35 272.526 30.1732C272.215 29.9925 271.851 29.9247 271.495 29.9809C271.14 30.0372 270.815 30.2142 270.575 30.4822Z" fill="#393939"/>
<path d="M165.122 57.3933L165.161 59.5563C165.167 60.0455 164.926 60.2901 164.437 60.2901H157.832C157.298 60.2901 157.03 60.023 157.03 59.4887L157.021 26.4555C157.021 26.1658 157.169 26.021 157.465 26.021L164.668 26.0114C164.997 26.0114 165.161 26.1723 165.161 26.4942L165.141 37.1254C165.141 37.5117 165.296 37.5889 165.605 37.3571C166.648 36.575 167.536 35.3487 168.647 34.8466C172.799 32.9637 177.26 33.6492 180.437 36.9516C181.402 37.9558 182.339 38.68 182.957 39.9546C185.351 44.9564 185.583 52.2177 181.431 56.447C177.858 60.0777 174.556 61.8254 169.371 60.0101C167.874 59.4887 166.841 58.1851 165.605 57.1616C165.27 56.8912 165.109 56.9685 165.122 57.3933ZM170.692 53.7043C172.19 53.7226 173.635 53.0606 174.709 51.864C175.783 50.6674 176.398 49.0342 176.419 47.3236C176.43 46.4766 176.294 45.6361 176.019 44.8501C175.745 44.0641 175.338 43.348 174.821 42.7427C174.303 42.1374 173.687 41.6547 173.005 41.3222C172.324 40.9897 171.591 40.8139 170.85 40.8048C169.352 40.7865 167.907 41.4485 166.833 42.6451C165.759 43.8417 165.143 45.4749 165.123 47.1855C165.112 48.0325 165.248 48.873 165.522 49.659C165.797 50.445 166.204 51.1611 166.721 51.7664C167.238 52.3717 167.855 52.8544 168.537 53.1869C169.218 53.5194 169.95 53.6952 170.692 53.7043Z" fill="#393939"/>
<path d="M239.29 37.1833C240.188 36.3046 240.757 35.4259 241.935 34.9335C248.955 32.027 256.188 36.0343 256.371 43.9522C256.493 49.4175 256.513 54.7733 256.429 60.0198C256.423 60.2 256.329 60.2901 256.149 60.2901H248.704C248.524 60.2901 248.434 60.2 248.434 60.0198C248.427 55.8291 248.427 51.4935 248.434 47.0131C248.453 38.5255 238.691 38.2648 238.681 46.791C238.675 51.2972 238.672 55.6617 238.672 59.8846C238.672 59.9905 238.629 60.0922 238.553 60.168C238.478 60.2438 238.375 60.2876 238.266 60.2901H231.043C230.715 60.2966 230.551 60.1324 230.551 59.7977V26.2624C230.551 26.1958 230.577 26.132 230.625 26.0849C230.672 26.0378 230.735 26.0114 230.802 26.0114H238.334C238.565 26.0114 238.681 26.1272 238.681 26.359L238.672 36.9226C238.672 37.502 238.878 37.5889 239.29 37.1833Z" fill="#393939"/>
<path d="M105.361 38.2069C111.57 42.4942 123.012 42.0307 120.193 53.4344C117.576 64.0367 97.2598 62.4917 96.0142 51.4453C95.9434 50.8208 96.2234 50.5086 96.8543 50.5086L103.642 50.499C104.338 50.499 104.753 50.8402 104.888 51.5225C105.516 54.7959 110.16 54.8731 111.995 52.7392C112.358 52.3171 112.56 51.7805 112.567 51.2228C112.574 50.6651 112.386 50.1219 112.033 49.6879C108.963 45.922 101.933 46.4821 98.4185 42.8032C94.8748 39.0953 95.3479 33.6493 99.0365 30.1924C104.511 25.0747 114.341 26.1369 118.86 31.747C119.858 32.9895 120.251 34.5924 120.038 36.5557C120.006 36.8712 119.829 37.0289 119.507 37.0289L112.313 36.9999C112.011 36.9999 111.821 36.8519 111.744 36.5557C110.537 31.7953 103.546 32.6161 104.869 37.4924C104.946 37.7949 105.11 38.0331 105.361 38.2069Z" fill="#393939"/>
<path d="M143.126 57.2872C138.375 61.3491 133.792 61.8319 129.376 58.7356C127.058 57.1134 125.513 54.8506 124.741 51.9474C123.923 48.8832 123.901 45.7998 124.673 42.697C125.381 39.871 126.833 37.6405 129.028 36.0054C133.457 32.6901 138.147 33.0539 143.097 37.0965C143.399 37.3476 143.548 37.2767 143.541 36.8841L143.522 35.0108C143.515 34.4765 143.782 34.2093 144.323 34.2093H150.445C150.954 34.2093 151.208 34.4604 151.208 34.9625V59.2956C151.208 59.9587 150.876 60.2902 150.213 60.2902H144.545C143.837 60.2966 143.49 59.9458 143.502 59.2377L143.551 57.49C143.564 57.1037 143.422 57.0361 143.126 57.2872ZM137.808 53.6463C138.582 53.6355 139.347 53.4594 140.059 53.1282C140.77 52.797 141.414 52.3171 141.953 51.716C142.493 51.1148 142.917 50.4041 143.203 49.6245C143.489 48.8449 143.63 48.0116 143.618 47.1722C143.606 46.3329 143.442 45.5038 143.135 44.7325C142.827 43.9612 142.383 43.2626 141.827 42.6768C141.271 42.0909 140.614 41.6292 139.894 41.3179C139.173 41.0067 138.404 40.8521 137.629 40.8629C136.855 40.8737 136.09 41.0498 135.379 41.381C134.667 41.7122 134.024 42.1921 133.484 42.7932C132.945 43.3944 132.52 44.1051 132.234 44.8847C131.949 45.6643 131.808 46.4976 131.819 47.337C131.831 48.1763 131.995 49.0054 132.302 49.7767C132.61 50.548 133.054 51.2466 133.61 51.8324C134.166 52.4183 134.823 52.88 135.543 53.1913C136.264 53.5025 137.033 53.6571 137.808 53.6463Z" fill="#393939"/>
<path d="M217.409 43.1121C216.106 39.8098 211.847 39.8098 210.206 42.7838C208.246 46.3372 208.883 55.5297 214.947 53.7434C216.299 53.3378 216.849 52.4784 217.458 51.2811C217.619 50.9657 217.876 50.8079 218.23 50.8079L225.752 50.7886C226.177 50.7886 226.335 50.9946 226.225 51.4066C224.149 59.4501 215.71 62.4241 208.342 59.5466C199.642 56.1477 198.059 41.5478 205.928 36.3819C213.653 31.3028 223.579 33.9293 226.283 43.0735C226.444 43.6142 226.245 43.8846 225.684 43.8846L218.52 43.8749C217.979 43.8749 217.609 43.6207 217.409 43.1121Z" fill="#393939"/>
<path d="M279.13 57.123C272.294 64.5485 263.179 59.5756 260.745 51.3487C259.065 45.671 261.238 37.5696 267.205 34.8466C271.795 32.7545 275.844 33.6396 279.353 37.502C279.649 37.8239 279.793 37.766 279.787 37.3282L279.739 34.866C279.726 34.4347 279.938 34.219 280.376 34.219L287.097 34.2093C287.618 34.2093 287.879 34.4668 287.879 34.9818L287.869 59.5273C287.869 60.0423 287.612 60.2998 287.097 60.2998L280.424 60.2902C279.954 60.2837 279.723 60.0456 279.729 59.5756L279.777 57.3837C279.79 56.7271 279.575 56.6402 279.13 57.123ZM274.146 53.7045C275.639 53.6915 277.065 52.9994 278.11 51.7806C279.155 50.5618 279.734 48.9161 279.719 47.2054C279.704 45.4948 279.097 43.8594 278.031 42.6591C276.964 41.4587 275.527 40.7916 274.034 40.8047C272.541 40.8177 271.115 41.5097 270.07 42.7285C269.025 43.9474 268.446 45.5931 268.461 47.3037C268.476 49.0144 269.083 50.6497 270.149 51.8501C271.216 53.0505 272.653 53.7175 274.146 53.7045Z" fill="#393939"/>
<path d="M319 47.245C319 50.8405 317.571 54.2888 315.029 56.8313C312.487 59.3737 309.038 60.802 305.443 60.802C301.847 60.802 298.399 59.3737 295.856 56.8313C293.314 54.2888 291.886 50.8405 291.886 47.245C291.886 45.4646 292.236 43.7018 292.918 42.0569C293.599 40.4121 294.598 38.9176 295.856 37.6587C297.115 36.3999 298.61 35.4013 300.255 34.7199C301.9 34.0386 303.662 33.688 305.443 33.688C309.038 33.688 312.487 35.1163 315.029 37.6587C317.571 40.2012 319 43.6494 319 47.245ZM305.362 53.7821C306.084 53.7846 306.799 53.618 307.466 53.2918C308.134 52.9656 308.741 52.4862 309.254 51.881C309.766 51.2758 310.173 50.5565 310.452 49.7644C310.731 48.9722 310.876 48.1227 310.879 47.2642C310.882 46.4057 310.743 45.5552 310.47 44.7611C310.196 43.967 309.794 43.2449 309.286 42.6361C308.778 42.0273 308.174 41.5437 307.508 41.2128C306.843 40.882 306.129 40.7104 305.408 40.7079C304.686 40.7054 303.971 40.8719 303.303 41.1981C302.636 41.5243 302.028 42.0038 301.516 42.609C301.004 43.2142 300.596 43.9335 300.318 44.7256C300.039 45.5178 299.894 46.3673 299.891 47.2258C299.888 48.0842 300.027 48.9348 300.3 49.7289C300.573 50.523 300.976 51.2451 301.484 51.8539C301.992 52.4627 302.596 52.9463 303.261 53.2772C303.927 53.608 304.641 53.7796 305.362 53.7821Z" fill="#393939"/>
<path d="M196.388 34.1997H189.03C188.822 34.1997 188.654 34.3683 188.654 34.5763V59.9136C188.654 60.1216 188.822 60.2902 189.03 60.2902H196.388C196.596 60.2902 196.765 60.1216 196.765 59.9136V34.5763C196.765 34.3683 196.596 34.1997 196.388 34.1997Z" fill="#393939"/>
</svg>
